# xmcd
#
# Track frame offsets:
#	150
#	41878
#	74639
#	92465
#	112787
#
# Disc length: 1861 seconds
#
# Revision: 1
# Processed by: cddbd v1.5.2PL0 Copyright (c) Steve Scherf et al.
# Submitted via: audiograbber 1.83.01
#
DISCID=3c074305
DTITLE=Grateful Dead - 80-05-11 Cumberland County Civic Centre, Portland ME
DYEAR=1900
DGENRE=
TTITLE0=Black Peter
TTITLE1=Going Down The Road Feeling Bad
TTITLE2=Around and Around
TTITLE3=Johnny B Goode
TTITLE4=Brokedown Palace
EXTD=
EXTT0=
EXTT1=
EXTT2=
EXTT3=
EXTT4=
PLAYORDER=
